<?xml version="1.0" encoding="UTF-8" standalone="no"?>
<svg width="128px" height="128px" viewBox="0 0 128 128" version="1.1" xmlns="http://www.w3.org/2000/svg" xmlns:xlink="http://www.w3.org/1999/xlink" xmlns:sketch="http://www.bohemiancoding.com/sketch/ns">
    <!-- Generator: Sketch 3.0.4 (8054) - http://www.bohemiancoding.com/sketch -->
    <title>b-double</title>
    <desc>Created with Sketch.</desc>
    <defs></defs>
    <g id="Bitcoin" stroke="none" stroke-width="1" fill="none" fill-rule="evenodd" sketch:type="MSPage">
        <g id="b-double" sketch:type="MSLayerGroup">
            <rect id="Rectangle-1" fill="#6C6C6C" sketch:type="MSShapeGroup" x="0" y="0" width="128" height="128" rx="8"></rect>
            <path d="M91.5245036,47.0877365 C90.618856,37.6269475 82.4333852,34.4605319 72.0968076,33.5639334 L72.1051935,20.440127 L64.0970491,20.4462302 L64.0891106,33.2241377 C61.9838794,33.2258001 59.8318956,33.2686932 57.6938665,33.3126568 L57.7035248,20.4501486 L49.6996759,20.4551807 L49.6880742,33.575239 C47.9542459,33.6116956 46.2515547,33.6449386 44.5913088,33.6471246 L44.5902879,33.6064307 L33.5450775,33.6099375 L33.5415574,42.1417501 C33.5415574,42.1417501 39.4553509,42.0254007 39.3569806,42.134099 C42.6007095,42.1329418 43.6551894,44.0107263 43.9612016,45.6315163 L43.952063,60.5822678 C44.1758965,60.5833327 44.46789,60.5924275 44.7984849,60.6373963 C44.5317073,60.6379388 44.2461454,60.6363401 43.9525264,60.6390251 L43.936709,81.5835706 C43.7936834,82.6019946 43.1925427,84.2260214 40.9262744,84.2314362 C41.0286812,84.321924 35.1049536,84.233733 35.1049536,84.233733 L33.5075184,93.7749057 L43.9290017,93.7676674 C45.8683662,93.7686867 47.7765582,93.8002272 49.6498869,93.8108863 L49.6445284,107.084082 L57.6440816,107.080121 L57.6524793,93.9472122 C59.8489033,93.9910604 61.974509,94.0070672 64.0496828,94.0037992 L64.037606,107.076203 L72.0457504,107.0701 L72.0569829,93.8204631 C85.5208285,93.0410292 94.9461393,89.6513987 96.1245687,77.0389131 C97.0759858,66.8830644 92.2900579,62.3549166 84.6487525,60.5292457 C89.2932946,58.1678008 92.1988634,54.0105129 91.5245036,47.0877365 L91.5245036,47.0877365 L91.5245036,47.0877365 Z M80.3019451,75.4763646 C80.2998512,85.3955205 63.2742768,84.2784959 57.8469401,84.2872076 L57.8605609,66.7009858 C63.2894996,66.6986994 80.309422,65.1304574 80.3019451,75.4763646 L80.3019451,75.4763646 Z M76.5937897,50.6670618 C76.5853382,59.6914859 62.3863228,58.6477423 57.8656049,58.6510754 L57.8765725,42.7011797 C62.3972904,42.6978466 76.5989859,41.2544388 76.5937897,50.6670618 L76.5937897,50.6670618 L76.5937897,50.6670618 Z" id="b" fill="#D5D5D5" sketch:type="MSShapeGroup"></path>
        </g>
    </g>
</svg>