<?xml version="1.0" encoding="UTF-8" standalone="no"?>
<svg width="128px" height="128px" viewBox="0 0 128 128" version="1.1" xmlns="http://www.w3.org/2000/svg" xmlns:xlink="http://www.w3.org/1999/xlink" xmlns:sketch="http://www.bohemiancoding.com/sketch/ns">
    <!-- Generator: Sketch 3.0.4 (8053) - http://www.bohemiancoding.com/sketch -->
    <title>bitcoin-dash</title>
    <desc>Created with Sketch.</desc>
    <defs></defs>
    <g id="Bitcoin" stroke="none" stroke-width="1" fill="none" fill-rule="evenodd" sketch:type="MSPage">
        <g id="bitcoin-dash" sketch:type="MSLayerGroup">
            <rect id="Rectangle-2" fill="#6C6C6C" sketch:type="MSShapeGroup" x="0" y="0" width="128" height="128" rx="8"></rect>
            <path d="M52.1533403,65.8233506 L52.1533403,77.1953521 L69.8053758,77.1953521 L69.8053758,85.3424599 L52.1533403,85.3424599 L52.1533403,96.7710419 L68.6172806,96.7710419 C74.1618012,96.7710534 78.2542182,95.5074945 80.8945315,92.980371 C83.5724622,90.4155614 84.9114276,86.5117407 84.9114848,81.2689088 C84.9114276,75.9884023 83.5724622,72.1034476 80.8945315,69.6140159 C78.2542182,67.0869438 74.1618012,65.8233906 68.6172806,65.8233506 L52.1533403,65.8233506 M52.1533403,31.0849883 L52.1533403,56.5446996 L67.3725876,56.5446996 C72.3890342,56.544751 76.1231131,55.5075031 78.5748244,53.4329557 C81.0642104,51.3207965 82.3089033,48.1147631 82.3089605,43.8148439 C82.3089033,39.5527652 81.0642104,36.365592 78.5748244,34.2533071 C76.1231131,32.1411708 72.3890342,31.0850627 67.3725876,31.0849883 L52.1533403,31.0849883 M41.8562672,21.6931818 L68.1080724,21.6931818 C75.9533771,21.6932676 81.9882971,23.5037322 86.2127755,27.124587 C90.4748714,30.745602 92.6059193,35.8941157 92.6059765,42.5701453 C92.6059193,47.737582 91.5120965,51.8488535 89.324508,54.9039596 C87.1745369,57.9591743 83.9873408,59.8639342 79.7629768,60.6182506 C84.8548299,61.8252747 88.7963767,64.3523867 91.5875601,68.1995868 C94.3786864,72.0091523 95.7742495,76.7804849 95.7743067,82.5136018 C95.7742495,90.0572405 93.4545996,95.8846755 88.8152998,99.9959356 C84.2136746,104.107213 77.6506805,106.162848 69.1264888,106.162848 L41.8562672,106.162848 L41.8562672,85.3424599 L32.125,85.3424599 L32.125,77.1953521 L41.8562672,77.1953521 L41.8562672,21.6931818" id="b-dash" fill="#D5D5D5" sketch:type="MSShapeGroup"></path>
        </g>
    </g>
</svg>