<?xml version="1.0" encoding="UTF-8" standalone="no"?>
<svg width="128px" height="128px" viewBox="0 0 128 128" version="1.1" xmlns="http://www.w3.org/2000/svg" xmlns:xlink="http://www.w3.org/1999/xlink" xmlns:sketch="http://www.bohemiancoding.com/sketch/ns">
    <!-- Generator: Sketch 3.0.4 (8053) - http://www.bohemiancoding.com/sketch -->
    <title>bitcoin-double</title>
    <desc>Created with Sketch.</desc>
    <defs></defs>
    <g id="Bitcoin" stroke="none" stroke-width="1" fill="none" fill-rule="evenodd" sketch:type="MSPage">
        <g id="bitcoin-double" sketch:type="MSLayerGroup">
            <rect id="Rectangle-1" fill="#6C6C6C" sketch:type="MSShapeGroup" x="0" y="0" width="128" height="128" rx="8"></rect>
            <path d="M94.0946737,44.8738742 C93.0668355,34.1366295 83.7769758,30.5429991 72.0457806,29.525431 L72.055298,14.6309524 L62.9666896,14.637879 L62.95768,29.1397899 C60.5684098,29.1416766 58.1260789,29.1903568 55.6995856,29.240252 L55.7105469,14.642326 L46.6268137,14.6480371 L46.6136467,29.538262 C44.6458892,29.5796373 42.7134698,29.6173655 40.8292224,29.6198464 L40.8280638,29.573662 L28.2926267,29.577642 L28.2886315,39.2605722 C28.2886315,39.2605722 35.0003178,39.1285248 34.8886753,39.2518888 C38.5700502,39.2505754 39.7668013,41.3817119 40.1141008,43.2211798 L40.1037292,60.1890962 C40.3577625,60.1903048 40.6891519,60.2006267 41.0643508,60.2516627 C40.7615795,60.2522784 40.4374894,60.250464 40.1042551,60.2535113 L40.0863037,84.0239082 C39.9239809,85.1797386 39.2417339,87.0228801 36.6696992,87.0290255 C36.7859229,87.131722 30.0629622,87.0316322 30.0629622,87.0316322 L28.25,97.860106 L40.0775565,97.8518911 C42.2785812,97.8530478 44.4442277,97.8888439 46.5703071,97.900941 L46.5642256,112.964965 L55.6430837,112.960469 L55.6526144,98.0556601 C58.1453812,98.1054243 60.557775,98.1235908 62.9129327,98.1198819 L62.8992264,112.956022 L71.9878348,112.949096 L72.0005828,97.91181 C87.280979,97.0272144 97.9779586,93.1802528 99.3153825,78.8660826 C100.395165,67.3400004 94.9635171,62.2009119 86.2912419,60.1289204 C91.5624285,57.4488678 94.8600186,52.730676 94.0946737,44.8738742 L94.0946737,44.8738742 L94.0946737,44.8738742 Z M81.3579605,77.0927141 C81.355584,88.3501687 62.0329083,87.0824345 55.8733119,87.0923216 L55.8887704,67.1333556 C62.050185,67.1307607 81.3664461,65.3509305 81.3579605,77.0927141 L81.3579605,77.0927141 Z M77.1494984,48.9361244 C77.1399066,59.1781295 61.025151,57.9935634 55.894495,57.9973461 L55.9069424,39.8954804 C61.0375984,39.8916976 77.1553957,38.2535443 77.1494984,48.9361244 L77.1494984,48.9361244 L77.1494984,48.9361244 Z" id="b" fill="#D5D5D5" sketch:type="MSShapeGroup"></path>
        </g>
    </g>
</svg>